<mxfile host="app.diagrams.net" modified="2023-05-26T06:13:53.758Z" agent="Mozilla/5.0 (Macintosh; Intel Mac OS X 10_15_7) AppleWebKit/537.36 (KHTML, like Gecko) Chrome/113.0.0.0 Safari/537.36" version="21.3.4" etag="8HrKhaRJLlARruWX83Ap" type="github">
  <diagram name="Page-1" id="pTGKddGVBu179Sqo4M76">
    <mxGraphModel>
      <root>
        <mxCell id="0" />
        <mxCell id="1" parent="0" />
      </root>
    </mxGraphModel>
  </diagram>
</mxfile>
